<?xml version="1.0" encoding="UTF-8"?>
<svg width="940px" height="252px" viewBox="0 0 940 252" version="1.1" xmlns="http://www.w3.org/2000/svg" xmlns:xlink="http://www.w3.org/1999/xlink">
    <!-- Generator: sketchtool 61.2 (101010) - https://sketch.com -->
    <title>6C396818-1154-430E-8DAC-65266D819C60</title>
    <desc>Created with sketchtool.</desc>
    <defs>
        <linearGradient x1="86.9356393%" y1="13.3995462%" x2="15.0677227%" y2="87.3663214%" id="linearGradient-1">
            <stop stop-color="#E5292D" offset="0%"></stop>
            <stop stop-color="#BB252B" offset="100%"></stop>
        </linearGradient>
        <path d="M210.2976,0.11232 L210.569562,0.116641244 C212.654033,0.182900278 214.718667,1.01113667 216.3072,2.60128 L216.3072,2.60128 L248.6696,34.988 L248.844155,35.1684943 C251.98615,38.5126712 251.928414,43.7646857 248.6952,47.054 L248.6952,47.054 L149.668,146.10768 L149.486218,146.280175 C146.118943,149.385048 140.871957,149.325471 137.6136,146.0756 L137.6136,146.0756 L105.2608,113.6712 L105.086203,113.491227 C101.943458,110.156669 102.001657,104.917367 105.2608,101.64856 L105.2608,101.64856 L204.2936,2.60128 C205.9496,0.942 208.124,0.11232 210.2976,0.11232 L210.2976,0.11232 Z" id="path-2"></path>
    </defs>
    <g id="Symbols" stroke="none" stroke-width="1" fill="none" fill-rule="evenodd">
        <g id="logo-panjang">
            <g id="Group" transform="translate(312.000000, 51.000000)" fill="#161616">
                <path d="M212.0942,61.3726 C216.3812,61.3726 219.8492,64.4035 219.8492,68.1485 L219.8492,68.1485 L219.8492,80.4709 C219.8492,84.2079 216.3812,87.2449 212.0942,87.2449 L212.0942,87.2449 L148.3162,87.2449 L148.3162,122.7456 L212.0942,122.7456 C216.3812,122.7456 219.8492,125.7785 219.8492,129.5195 L219.8492,129.5195 L219.8492,141.8499 C219.8492,145.5829 216.3812,148.6279 212.0942,148.6279 L212.0942,148.6279 L129.2522,148.7422 C127.1582,148.7422 125.3102,147.6189 124.0692,145.9059 C123.0952,144.7745 122.4882,143.3764 122.4882,141.8499 L122.4882,141.8499 L122.4882,68.1485 C122.4882,66.4435 123.2312,64.905 124.4262,63.7175 C124.4842,63.6413 124.5502,63.5811 124.6102,63.5069 C124.6882,63.4407 124.7512,63.3705 124.8332,63.3103 C126.0192,62.1188 127.5572,61.3726 129.2522,61.3726 L129.2522,61.3726 Z M62.4693,0.0004 C74.4525,0.0004 83.746,3.276 90.3579,9.8153 C96.9658,16.3666 100.2688,25.634 100.2688,37.6474 L100.2688,44.5738 C100.2688,47.9618 98.6574,49.6568 95.4286,49.6568 L75.8334,49.6568 C72.6106,49.6568 70.9932,47.9618 70.9932,44.5738 L70.9932,39.0335 C70.9932,34.1049 69.9951,30.6006 67.9989,28.5225 C66.0007,26.4464 62.5395,25.4053 57.6251,25.4053 L42.6376,25.4053 C37.8796,25.4053 34.4584,26.4464 32.3841,28.5225 C30.3077,30.6006 29.2715,34.1049 29.2715,39.0335 L29.2715,109.4792 C29.2715,114.3997 30.3077,117.9041 32.3841,119.9842 C34.4584,122.0603 37.8796,123.1014 42.6376,123.1014 L57.6251,123.1014 C62.5395,123.1014 66.0007,122.0603 67.9989,119.9842 C69.9951,117.9041 70.9932,114.3997 70.9932,109.4792 L70.9932,94.9243 C70.9932,93.2313 70.1474,92.3828 68.4599,92.3828 L54.6308,92.3828 C51.402,92.3828 49.7866,90.766 49.7866,87.5385 L49.7866,71.8302 C49.7866,68.5927 51.402,66.9779 54.6308,66.9779 L94.9716,66.9779 C98.501,66.9779 100.2688,68.7491 100.2688,72.2916 L100.2688,110.8573 C100.2688,122.8707 96.9658,132.1501 90.3579,138.6894 C83.746,145.2407 74.4525,148.5103 62.4693,148.5103 L38.0339,148.5103 C25.8944,148.5103 16.5147,145.2788 9.9068,138.8077 C3.3009,132.3386 -9.23705556e-14,123.0312 -9.23705556e-14,110.8573 L-9.23705556e-14,37.6474 C-9.23705556e-14,25.4875 3.3009,16.168 9.9068,9.701 C16.5147,3.2359 25.8944,0.0004 38.0339,0.0004 L62.4693,0.0004 Z M301.3412,0.001 C313.4792,0.001 322.9332,3.3167 329.6972,9.9323 C336.4612,16.5578 339.8362,25.8632 339.8362,37.8787 L339.8362,42.2676 C339.8362,45.4971 338.2232,47.1199 334.9982,47.1199 L315.4052,47.1199 C312.1802,47.1199 310.5712,45.4971 310.5712,42.2676 L310.5712,40.8815 C310.5712,34.8778 309.4162,30.7978 307.1032,28.6414 C304.8002,26.4871 300.5702,25.4059 294.4232,25.4059 L285.4402,25.4059 C279.1332,25.4059 274.8722,26.6014 272.6392,28.9865 C270.4162,31.3755 269.2962,36.0292 269.2962,42.9597 L269.2962,47.3466 C269.2962,54.5859 275.6032,58.7442 288.2002,59.8154 C301.2612,60.8986 312.8692,63.5163 323.0112,67.6745 C328.3822,69.9813 332.8872,74.0995 336.4972,80.031 C340.1052,85.9585 341.9142,93.5368 341.9142,102.7741 L341.9142,110.6292 C341.9142,122.6427 338.5272,131.9621 331.7632,138.5756 C325.0032,145.1992 315.6312,148.5109 303.6502,148.5109 L278.5232,148.5109 C266.5362,148.5109 257.1622,145.1992 250.4022,138.5756 C243.6342,131.9621 240.2592,122.6427 240.2592,110.6292 L240.2592,106.0096 C240.2592,102.7741 241.8682,101.1593 245.0932,101.1593 L264.6882,101.1593 C267.9152,101.1593 269.5302,102.7741 269.5302,106.0096 L269.5302,107.8631 C269.5302,113.7123 270.6872,117.7121 272.9922,119.8685 C275.2922,122.0268 279.5172,123.102 285.6662,123.102 L296.5052,123.102 C302.4962,123.102 306.6802,121.9466 309.0672,119.6358 C311.4442,117.327 312.6372,113.0203 312.6372,106.7057 L312.6372,103.9315 C312.6372,99.4703 310.8332,96.0462 307.2202,93.6572 C303.6102,91.2701 299.1132,89.8439 293.7392,89.3866 C288.3522,88.9192 282.5562,88.0346 276.3352,86.7247 C270.1082,85.4169 264.3052,83.7259 258.9302,81.6437 C253.5452,79.5636 249.0512,75.4876 245.4382,69.4057 C241.8282,63.3197 240.0242,55.5107 240.0242,45.9645 L240.0242,37.8787 C240.0242,25.8632 243.4052,16.5578 250.1702,9.9323 C256.9302,3.3167 266.3062,0.001 278.2932,0.001 L301.3412,0.001 Z M507.6212,0.0004 C510.8482,0.0004 512.4672,1.6191 512.4672,4.8547 L512.4672,20.557 C512.4672,23.7865 510.8482,25.4053 507.6212,25.4053 L481.3482,25.4053 C479.5042,25.4053 478.5722,26.2558 478.5722,27.9468 L478.5722,143.658 C478.5722,146.8916 476.9592,148.5103 473.7382,148.5103 L454.3732,148.5103 C450.9902,148.5103 449.3052,146.8916 449.3052,143.658 L449.3052,27.9468 C449.3052,26.2558 448.4592,25.4053 446.7672,25.4053 L420.4862,25.4053 C417.2672,25.4053 415.6522,23.7865 415.6522,20.557 L415.6522,4.8547 C415.6522,1.6191 417.2672,0.0004 420.4862,0.0004 L507.6212,0.0004 Z M587.3782,0.001 C599.5142,0.001 608.9682,3.3167 615.7282,9.9323 C622.4882,16.5578 625.8732,25.8632 625.8732,37.8787 L625.8732,42.2676 C625.8732,45.4971 624.2622,47.1199 621.0312,47.1199 L601.4362,47.1199 C598.2112,47.1199 596.5942,45.4971 596.5942,42.2676 L596.5942,40.8815 C596.5942,34.8778 595.4472,30.7978 593.1402,28.6414 C590.8312,26.4871 586.6092,25.4059 580.4622,25.4059 L571.4792,25.4059 C565.1762,25.4059 560.8992,26.6014 558.6782,28.9865 C556.4472,31.3755 555.3352,36.0292 555.3352,42.9597 L555.3352,47.3466 C555.3352,54.5859 561.6342,58.7442 574.2352,59.8154 C587.3002,60.8986 598.9022,63.5163 609.0462,67.6745 C614.4212,69.9813 618.9192,74.0995 622.5302,80.031 C626.1402,85.9585 627.9452,93.5368 627.9452,102.7741 L627.9452,110.6292 C627.9452,122.6427 624.5622,131.9621 617.8062,138.5756 C611.0382,145.1992 601.6662,148.5109 589.6772,148.5109 L564.5622,148.5109 C552.5752,148.5109 543.1892,145.1992 536.4352,138.5756 C529.6712,131.9621 526.2862,122.6427 526.2862,110.6292 L526.2862,106.0096 C526.2862,102.7741 527.9032,101.1593 531.1322,101.1593 L550.7232,101.1593 C553.9542,101.1593 555.5652,102.7741 555.5652,106.0096 L555.5652,107.8631 C555.5652,113.7123 556.7222,117.7121 559.0272,119.8685 C561.3272,122.0268 565.5562,123.102 571.7012,123.102 L582.5322,123.102 C588.5352,123.102 592.7112,121.9466 595.1022,119.6358 C597.4772,117.327 598.6722,113.0203 598.6722,106.7057 L598.6722,103.9315 C598.6722,99.4703 596.8642,96.0462 593.2552,93.6572 C589.6412,91.2701 585.1522,89.8439 579.7702,89.3866 C574.3872,88.9192 568.5892,88.0346 562.3662,86.7247 C556.1392,85.4169 550.3402,83.7259 544.9612,81.6437 C539.5842,79.5636 535.0862,75.4876 531.4772,69.4057 C527.8632,63.3197 526.0632,55.5107 526.0632,45.9645 L526.0632,37.8787 C526.0632,25.8632 529.4322,16.5578 536.2092,9.9323 C542.9612,3.3167 552.3372,0.001 564.3242,0.001 L587.3782,0.001 Z M390.0432,0 C393.2632,0 394.8772,1.6207 394.8772,4.8543 L394.8772,143.6576 C394.8772,146.8932 393.2632,148.5099 390.0432,148.5099 L370.4472,148.5099 C367.2132,148.5099 365.6072,146.8932 365.6072,143.6576 L365.6072,4.8543 C365.6072,1.6207 367.2132,0 370.4472,0 L390.0432,0 Z M212.0942,0.0002 C216.3812,0.0002 219.8492,3.0351 219.8492,6.7782 L219.8492,6.7782 L219.8492,19.0985 C219.8492,22.8375 216.3812,25.8765 212.0942,25.8765 L212.0942,25.8765 L130.2462,25.8765 C125.9592,25.8765 122.4882,22.8375 122.4882,19.0985 L122.4882,19.0985 L122.4882,6.7782 C122.4882,3.0351 125.9592,0.0002 130.2462,0.0002 L130.2462,0.0002 Z" id="Combined-Shape"></path>
            </g>
            <g id="Group-2">
                <path d="M125.6544,4.54747351e-14 C136.53771,4.54747351e-14 147.082437,1.40474901 157.153209,4.00758915 L158.2304,4.29104 L144.632,17.8976 L143.606414,17.7232868 C138.173852,16.8258703 132.609337,16.3184229 126.939717,16.2547517 L125.7232,16.24792 L123.913251,16.2626477 C64.8951559,17.2237145 17.067474,65.099631 16.1168222,124.170038 L16.1024,125.96344 L16.1063928,126.906911 C16.1963911,137.536783 17.8057789,147.813169 20.7260368,157.52416 L21.0328,158.52672 L21.4597114,159.859383 C35.6767364,203.277196 76.2748171,234.840448 124.199902,235.467371 L125.6544,235.47688 L127.46435,235.462153 C186.482539,234.501115 234.314832,186.626659 235.265576,127.556282 L235.28,125.76288 L235.274557,124.680683 C235.217065,118.963806 234.705488,113.354423 233.803935,107.875492 L233.6048,106.70344 L247.0472,93.24616 L247.295397,94.1907365 C249.812082,103.921015 251.209986,114.101397 251.306626,124.595576 L251.312,125.76288 L251.295166,127.842572 C250.19663,195.654419 195.471431,250.420701 127.711674,251.509246 L125.6544,251.52576 L123.576528,251.508911 C55.8240108,250.409414 1.10412256,195.636323 0.0165000502,127.821815 L0,125.76288 L0.0168346368,123.683188 C1.1264976,55.1863731 56.953152,4.54747351e-14 125.6544,4.54747351e-14 Z M125.6176,24.07416 L126.734366,24.0804222 C130.039088,24.1174561 133.30615,24.3180805 136.530487,24.6644391 L137.7376,24.80112 L122.3448,40.20656 L120.97536,40.2689639 C76.3275711,42.6578892 40.7678509,79.2812829 40.0611213,124.393278 L40.0504,125.76288 L40.0618635,127.179054 C40.8099306,173.355803 78.0760002,210.650126 124.216709,211.391394 L125.6176,211.40264 L126.997822,211.391722 C172.004295,210.679213 208.555863,175.181252 211.032216,130.584884 L211.0968,129.23072 L226.548,113.76432 L226.673872,114.857122 C227.029909,118.10018 227.235068,121.388506 227.276263,124.714459 L227.284,125.96344 L227.270362,127.642398 C226.380393,182.389195 182.04624,226.756902 127.343984,227.638781 L125.6832,227.65216 L124.319471,227.64314 C79.8352714,227.054404 42.1557874,197.705313 29.0418543,157.367775 L28.652,156.14208 L28.3899119,155.29377 C25.5466754,145.945082 24.0168,136.028598 24.0168,125.76288 C24.0168,69.69032 69.5928,24.07416 125.6176,24.07416 Z" id="Combined-Shape" fill="#231E20"></path>
                <path d="M40.0504,125.7624 C40.0504,173.06032 78.3592,211.40216 125.6176,211.40216 C171.7112,211.40216 209.2744,174.91856 211.0976,129.23024 L207.7144,132.61624 C204.4712,175.14968 168.9872,208.65968 125.656,208.65968 C80.1872,208.65968 43.3288,171.77008 43.3288,126.26312 C43.3288,83.22576 76.304,47.9136 118.3456,44.20992 L122.3448,40.20608 C76.6056,41.9296 40.0504,79.56376 40.0504,125.7624" id="Fill-8829" fill="#6D6E71"></path>
                <path d="M231.3368,125.96296 C231.3368,184.24688 183.9584,231.66512 125.724,231.66512 C67.4864,231.66512 20.112,184.24688 20.112,125.96296 C20.112,67.67912 67.4864,20.26088 125.724,20.26088 C130.9592,20.26088 136.1032,20.65888 141.1376,21.39864 L144.6328,17.89712 C138.4888,16.82352 132.1712,16.24904 125.724,16.24904 C65.2792,16.24904 16.1032,65.46616 16.1032,125.96296 C16.1032,137.2956 17.8288,148.23504 21.032,158.52624 C34.9864,203.0704 76.608,235.4764 125.6552,235.4764 C186.1008,235.4764 235.2792,186.2592 235.2792,125.7624 C235.2792,119.2616 234.6912,112.89728 233.604,106.70464 L230.1536,110.158 C230.9264,115.3156 231.3368,120.59192 231.3368,125.96296" id="Fill-8831" fill="#D81F26"></path>
                <mask id="mask-3" fill="white">
                    <use xlink:href="#path-2"></use>
                </mask>
                <use id="Clip-8835" fill="url(#linearGradient-1)" xlink:href="#path-2"></use>
            </g>
        </g>
    </g>
</svg>