<?xml version="1.0" encoding="UTF-8"?>
<svg width="20px" height="17px" viewBox="0 0 20 17" version="1.1" xmlns="http://www.w3.org/2000/svg" xmlns:xlink="http://www.w3.org/1999/xlink">
    <!-- Generator: sketchtool 61.2 (101010) - https://sketch.com -->
    <title>6F52B8C4-1DE6-4956-B065-481B6492DDF2</title>
    <desc>Created with sketchtool.</desc>
    <g id="Page-1" stroke="none" stroke-width="1" fill="none" fill-rule="evenodd" opacity="0.600000024">
        <g id="Landingpage-Gesits" transform="translate(-900.000000, -2326.000000)" fill="#323232" fill-rule="nonzero">
            <g id="footer" transform="translate(0.000000, 2149.000000)">
                <g id="Group-8" transform="translate(900.000000, 70.000000)">
                    <g id="twitter" transform="translate(0.000000, 107.000000)">
                        <path d="M20.0704,1.9305216 C19.324032,2.25792 18.5287424,2.4749312 17.699584,2.5803008 C18.552576,2.0710144 19.2036096,1.2707072 19.5096832,0.3060736 C18.7143936,0.7802368 17.8363136,1.1151616 16.9005312,1.3020672 C16.1453824,0.4979968 15.0691072,0 13.8949888,0 C11.6169984,0 9.7830656,1.8489856 9.7830656,4.1156864 C9.7830656,4.4418304 9.8106624,4.7554304 9.8784,5.0539776 C6.4576512,4.8871424 3.430784,3.2476416 1.3974016,0.7501312 C1.0424064,1.3660416 0.834176,2.0710144 0.834176,2.8299264 C0.834176,4.2549248 1.568,5.5181056 2.6618368,6.2494208 C2.000768,6.2368768 1.3522432,6.0449536 0.802816,5.7426432 C0.802816,5.7551872 0.802816,5.7714944 0.802816,5.7878016 C0.802816,7.7873152 2.2290688,9.4481408 4.0993792,9.8307328 C3.7644544,9.922304 3.399424,9.966208 3.0205952,9.966208 C2.7571712,9.966208 2.4912384,9.9511552 2.2416128,9.8959616 C2.7747328,11.5254272 4.2875392,12.7233792 6.0863488,12.7622656 C4.6864384,13.8573568 2.9089536,14.5171712 0.984704,14.5171712 C0.6472704,14.5171712 0.3236352,14.5021184 -2.22826202e-15,14.4607232 C1.8226432,15.636096 3.98272,16.3072 6.3121408,16.3072 C13.8836992,16.3072 18.0232192,10.0352 18.0232192,4.5986304 C18.0232192,4.4167424 18.0169472,4.2411264 18.0081664,4.0667648 C18.8247808,3.487232 19.5109376,2.7634432 20.0704,1.9305216 Z" id="Path"></path>
                    </g>
                </g>
            </g>
        </g>
    </g>
</svg>