<?xml version="1.0" encoding="UTF-8"?>
<svg width="21px" height="21px" viewBox="0 0 21 21" version="1.1" xmlns="http://www.w3.org/2000/svg" xmlns:xlink="http://www.w3.org/1999/xlink">
    <!-- Generator: sketchtool 61.2 (101010) - https://sketch.com -->
    <title>0640BC12-0915-44DD-9BB0-54110DE4849B</title>
    <desc>Created with sketchtool.</desc>
    <g id="Page-1" stroke="none" stroke-width="1" fill="none" fill-rule="evenodd" opacity="0.600000024">
        <g id="Landingpage-Gesits" transform="translate(-1001.000000, -2324.000000)" fill="#323232" fill-rule="nonzero">
            <g id="footer" transform="translate(0.000000, 2149.000000)">
                <g id="Group-8" transform="translate(900.000000, 70.000000)">
                    <g id="instagram" transform="translate(101.000000, 105.000000)">
                        <path d="M13.7984,6.1284311e-14 C17.2617984,6.1284311e-14 20.0704,2.8086016 20.0704,6.272 L20.0704,6.272 L20.0704,13.7984 C20.0704,17.2617984 17.2617984,20.0704 13.7984,20.0704 L13.7984,20.0704 L6.272,20.0704 C2.8086016,20.0704 6.1284311e-14,17.2617984 6.1284311e-14,13.7984 L6.1284311e-14,13.7984 L6.1284311e-14,6.272 C6.1284311e-14,2.8086016 2.8086016,6.1284311e-14 6.272,6.1284311e-14 L6.272,6.1284311e-14 Z M13.7984,1.8816 L6.272,1.8816 C3.851008,1.8816 1.8816,3.851008 1.8816,6.272 L1.8816,6.272 L1.8816,13.7984 C1.8816,16.219392 3.851008,18.1888 6.272,18.1888 L6.272,18.1888 L13.7984,18.1888 C16.219392,18.1888 18.1888,16.219392 18.1888,13.7984 L18.1888,13.7984 L18.1888,6.272 C18.1888,3.851008 16.219392,1.8816 13.7984,1.8816 L13.7984,1.8816 Z M10.0352,5.0176 C12.8061696,5.0176 15.0528,7.2642304 15.0528,10.0352 C15.0528,12.8061696 12.8061696,15.0528 10.0352,15.0528 C7.2642304,15.0528 5.0176,12.8061696 5.0176,10.0352 C5.0176,7.2642304 7.2642304,5.0176 10.0352,5.0176 Z M10.0352,6.8992 C8.3066368,6.8992 6.8992,8.3053824 6.8992,10.0352 C6.8992,11.7637632 8.3066368,13.1712 10.0352,13.1712 C11.7637632,13.1712 13.1712,11.7637632 13.1712,10.0352 C13.1712,8.3053824 11.7637632,6.8992 10.0352,6.8992 Z M15.42912,3.9726848 C15.7983749,3.9726848 16.0977152,4.27202507 16.0977152,4.64128 C16.0977152,5.01053493 15.7983749,5.3098752 15.42912,5.3098752 C15.0598651,5.3098752 14.7605248,5.01053493 14.7605248,4.64128 C14.7605248,4.27202507 15.0598651,3.9726848 15.42912,3.9726848 Z" id="Combined-Shape"></path>
                    </g>
                </g>
            </g>
        </g>
    </g>
</svg>